# xmcd
#
# Track frame offsets:
#	150
#	24820
#	47054
#	66822
#	88351
#	120015
#	144018
#	171187
#	205425
#	240171
#	260415
#	289943
#	310226
#	326945
#	343335
#
# Disc length: 4770 seconds
#
# Revision: 0
# Processed by: cddbd v1.5.2PL0 Copyright (c) Steve Scherf et al.
# Submitted via: EasyCDDAExtractor 10.2.0.1
#
DISCID=d612a00f
DTITLE=Various Artist - RAINDROPS
DYEAR=1900
DGENRE=
TTITLE0=Craig Armstrong - Weather Storm
TTITLE1=Swandive - Losing My Religion
TTITLE2=MANDALAY - Beautiful
TTITLE3=John Lee Hooker and Carlos Santana  - Chill Out
TTITLE4=the doors - Riders On The Storm (chill out remix)
TTITLE5=Gregorian - Child in time
TTITLE6=Orange Music - Foolin (Sad Morning Mix)
TTITLE7=Sina Vodjani - Straight To The Heart
TTITLE8=GABIN ft JHO JENKINS. - IT'S GONNA BE
TTITLE9=ΝΑΜΑ - ΘΑΛΑΣΣΕΣ
TTITLE10=Delrium and Sarah McLachlan - Silence
TTITLE11=Discovery - Missing [Vocal Chillout Mix]
TTITLE12=Pop Deluxe - Walk On The Wild Side
TTITLE13=ANEMOS - THYMASAI
TTITLE14=Sagi-Rei  - Rhythm is a dancer
EXTD=
EXTT0=
EXTT1=
EXTT2=
EXTT3=
EXTT4=
EXTT5=
EXTT6=
EXTT7=
EXTT8=
EXTT9=
EXTT10=
EXTT11=
EXTT12=
EXTT13=
EXTT14=
PLAYORDER=
